<?xml version="1.0" encoding="utf-8"?>
<!-- Generator: Adobe Illustrator 19.0.0, SVG Export Plug-In . SVG Version: 6.00 Build 0)  -->
<svg version="1.1" id="Layer_1" opacity="0.3" xmlns="http://www.w3.org/2000/svg" xmlns:xlink="http://www.w3.org/1999/xlink"
	 x="0px" y="0px" viewBox="0 0 1920 1920" style="enable-background:new 0 0 1920 1920;" xml:space="preserve">
<style type="text/css">
	.st0{fill:#CCFFFF;}
</style>
<g id="XMLID_2_">
	<g id="XMLID_13_">
		<path id="XMLID_19_" class="st0" d="M2258.6,760.6c18.8-383-487.4-521.2-694.2-206.8c-223.7,340.3-989-173.9-965.4,513.3
			c6.3,183.7,168.8,306.9,339.9,326.1c226.4,29.8,337.1-129.5,451.3-82.4c206,85.2,145.2,278.6,308.1,367.7
			c255.5,139.7,533.7-36.1,578.9-279.8c19.2-104.4-118.5-254.7-88.3-404.6C2205.6,914.4,2254.6,846.9,2258.6,760.6z"/>
	</g>
</g>
<g id="XMLID_1_">
	<g id="XMLID_16_">
		<path id="XMLID_24_" class="st0" d="M119.6,1894.9c58.2,23,51.2,184,172.7,166.5c113.2-16.4,73.2-153.1,121.4-260.4
			c24.3-54.4,99.3-76.3,130.7-146.5c88.5-196.7-44.5-392.3-223.3-397.4c-202-5.9-327.6,141.5-343.2,246.3
			c-17.5,118.7-137.5,90.7-185.3,106.9c-116.8,39.6-105.2,266.1,18.5,310.5C-49.1,1971-4.4,1846,119.6,1894.9z"/>
	</g>
</g>
<g id="XMLID_5_">
	<g id="XMLID_18_">
		<path id="XMLID_31_" class="st0" d="M90,107.7c-5.1,84-80.9,68.8-89.2,138.7c-13.6,114.9,155.3,90.6,208,142.3
			c15.9,15.5,37.1,55.6,52.5,71.6c25.7,26.3,96.6,65.7,160.4,0.5c33.7-34.5,46-77.3,25.1-84.6c-11.2-3.9-29.1,11.2-40.9-9.2
			c-22.2-38.9-4.3-104,8.9-146.8c16.4-53.2,103.7-171,27.6-255C341.1-146.9,105.1-138.6,90,107.7z"/>
	</g>
</g>
</svg>
